<svg xmlns="http://www.w3.org/2000/svg" xmlns:xlink="http://www.w3.org/1999/xlink" version="1.1" width="256" height="256" viewBox="0 0 256 256" xml:space="preserve">

<defs>
</defs>
<g style="stroke: none; stroke-width: 0; stroke-dasharray: none; stroke-linecap: butt; stroke-linejoin: miter; stroke-miterlimit: 10; fill: none; fill-rule: nonzero; opacity: 1;" transform="translate(45.02412451361867 45.024124513618645) scale(1.83 1.83)" >
	<path d="M 51.892 48.182 c -0.828 0 -1.5 0.671 -1.5 1.5 c 0 0.956 -0.593 1.765 -1.294 1.765 h -8.196 c -0.701 0 -1.294 -0.809 -1.294 -1.765 v -9.576 c 0 -0.956 0.593 -1.764 1.294 -1.764 h 8.196 c 0.701 0 1.294 0.808 1.294 1.764 c 0 0.829 0.672 1.5 1.5 1.5 s 1.5 -0.671 1.5 -1.5 c 0 -2.627 -1.926 -4.764 -4.294 -4.764 H 46.5 V 33.53 c 0 -0.829 -0.671 -1.5 -1.5 -1.5 s -1.5 0.671 -1.5 1.5 v 1.812 h -2.598 c -2.368 0 -4.294 2.137 -4.294 4.764 v 9.576 c 0 2.627 1.926 4.765 4.294 4.765 H 43.5 v 1.812 c 0 0.828 0.671 1.5 1.5 1.5 s 1.5 -0.672 1.5 -1.5 v -1.812 h 2.599 c 2.368 0 4.294 -2.138 4.294 -4.765 C 53.392 48.853 52.72 48.182 51.892 48.182 z" style="stroke: none; stroke-width: 1; stroke-dasharray: none; stroke-linecap: butt; stroke-linejoin: miter; stroke-miterlimit: 10; fill: rgb(233,22,22); fill-rule: nonzero; opacity: 1;" transform=" matrix(1 0 0 1 0 0) " stroke-linecap="round" />
	<path d="M 84.886 49.223 c -1.117 0 -2.143 0.368 -2.984 0.977 l -2.767 -2.25 c -0.268 -0.218 -0.602 -0.336 -0.946 -0.336 H 65.253 c 0.119 -0.892 0.201 -1.795 0.201 -2.719 c 0 -1.144 -0.117 -2.258 -0.298 -3.351 h 10.501 c 0.345 0 0.679 -0.119 0.946 -0.336 l 2.766 -2.25 c 0.841 0.608 1.867 0.977 2.985 0.977 c 2.824 0 5.114 -2.289 5.114 -5.114 c 0 -2.824 -2.289 -5.114 -5.114 -5.114 s -5.114 2.289 -5.114 5.114 c 0 0.613 0.126 1.194 0.324 1.739 l -2.44 1.985 H 64.437 c -0.799 -2.446 -2.036 -4.693 -3.635 -6.636 c 0.001 -0.001 0.001 -0.001 0.002 -0.002 L 64 28.136 c 0.089 -0.106 0.155 -0.222 0.211 -0.342 c 0.482 0.151 0.985 0.255 1.517 0.255 c 2.824 0 5.114 -2.289 5.114 -5.114 c 0 -2.824 -2.289 -5.114 -5.114 -5.114 s -5.114 2.289 -5.114 5.114 c 0 1.219 0.444 2.324 1.156 3.202 c -0.019 0.02 -0.042 0.036 -0.06 0.058 l -3.006 3.545 c -2.289 -2.072 -5.041 -3.633 -8.092 -4.503 V 12.344 l 1.985 -2.44 c 0.545 0.198 1.125 0.324 1.739 0.324 c 2.824 0 5.114 -2.289 5.114 -5.114 S 57.161 0 54.337 0 s -5.114 2.289 -5.114 5.114 c 0 1.118 0.369 2.143 0.977 2.985 l -2.25 2.766 c -0.218 0.268 -0.337 0.602 -0.337 0.947 v 12.814 c -0.858 -0.11 -1.725 -0.185 -2.613 -0.185 c -1.181 0 -2.331 0.122 -3.457 0.314 V 14.342 c 0 -0.345 -0.119 -0.679 -0.336 -0.946 l -2.25 -2.766 c 0.608 -0.841 0.977 -1.867 0.977 -2.984 c 0 -2.824 -2.289 -5.114 -5.114 -5.114 s -5.114 2.289 -5.114 5.114 s 2.289 5.114 5.114 5.114 c 0.614 0 1.194 -0.126 1.739 -0.324 l 1.984 2.44 v 10.621 c -2.717 0.904 -5.172 2.366 -7.248 4.245 l -3.007 -3.546 c -0.018 -0.021 -0.04 -0.037 -0.059 -0.057 c 0.712 -0.879 1.157 -1.983 1.157 -3.203 c 0 -2.824 -2.289 -5.114 -5.114 -5.114 s -5.114 2.289 -5.114 5.114 c 0 2.824 2.289 5.114 5.114 5.114 c 0.532 0 1.035 -0.104 1.517 -0.255 c 0.056 0.12 0.122 0.236 0.211 0.342 l 3.197 3.77 c 0.001 0.001 0.001 0.001 0.002 0.002 c -1.78 2.164 -3.106 4.706 -3.881 7.48 H 12.344 l -2.44 -1.985 c 0.198 -0.545 0.324 -1.125 0.324 -1.739 c 0 -2.824 -2.289 -5.114 -5.114 -5.114 S 0 32.839 0 35.663 s 2.289 5.114 5.114 5.114 c 1.117 0 2.143 -0.368 2.984 -0.977 l 2.766 2.25 c 0.268 0.218 0.602 0.336 0.947 0.336 h 12.904 c -0.101 0.823 -0.169 1.657 -0.169 2.507 c 0 1.218 0.126 2.404 0.33 3.563 H 14.342 c -0.345 0 -0.679 0.119 -0.946 0.336 l -2.766 2.249 c -0.841 -0.608 -1.867 -0.976 -2.984 -0.976 c -2.824 0 -5.114 2.289 -5.114 5.114 c 0 2.824 2.289 5.114 5.114 5.114 c 2.824 0 5.114 -2.289 5.114 -5.114 c 0 -0.613 -0.126 -1.194 -0.324 -1.739 l 2.44 -1.984 h 10.766 c 0.818 2.412 2.06 4.626 3.658 6.539 c -0.034 0.033 -0.071 0.062 -0.102 0.099 L 26 61.864 c -0.089 0.106 -0.156 0.222 -0.211 0.341 c -0.482 -0.151 -0.985 -0.255 -1.517 -0.255 c -2.824 0 -5.114 2.289 -5.114 5.114 s 2.289 5.114 5.114 5.114 s 5.114 -2.289 5.114 -5.114 c 0 -1.22 -0.445 -2.325 -1.158 -3.204 c 0.019 -0.02 0.042 -0.035 0.06 -0.057 l 3.108 -3.665 c 2.269 2.026 4.985 3.554 7.991 4.411 v 13.106 l -1.984 2.44 c -0.545 -0.198 -1.125 -0.324 -1.739 -0.324 c -2.824 0 -5.114 2.289 -5.114 5.114 S 32.839 90 35.664 90 s 5.114 -2.289 5.114 -5.114 c 0 -1.117 -0.368 -2.143 -0.977 -2.984 l 2.25 -2.766 c 0.218 -0.268 0.336 -0.602 0.336 -0.946 V 65.164 c 0.858 0.11 1.726 0.185 2.613 0.185 c 1.181 0 2.331 -0.122 3.457 -0.314 v 10.623 c 0 0.345 0.119 0.679 0.337 0.946 l 2.25 2.766 c -0.608 0.841 -0.977 1.867 -0.977 2.985 c 0 2.824 2.289 5.114 5.114 5.114 s 5.114 -2.289 5.114 -5.114 s -2.289 -5.114 -5.114 -5.114 c -0.614 0 -1.194 0.126 -1.739 0.324 l -1.984 -2.44 V 64.292 c 2.673 -0.89 5.093 -2.318 7.148 -4.153 l 3.107 3.665 c 0.018 0.022 0.041 0.037 0.061 0.057 c -0.713 0.879 -1.157 1.984 -1.157 3.203 c 0 2.824 2.289 5.114 5.114 5.114 s 5.114 -2.289 5.114 -5.114 s -2.289 -5.114 -5.114 -5.114 c -0.532 0 -1.035 0.104 -1.517 0.255 c -0.055 -0.12 -0.121 -0.236 -0.211 -0.341 l -3.196 -3.77 c -0.031 -0.037 -0.069 -0.066 -0.103 -0.099 c 1.784 -2.135 3.13 -4.641 3.927 -7.383 h 13.027 l 2.44 1.986 c -0.198 0.545 -0.324 1.125 -0.324 1.738 c 0 2.824 2.289 5.114 5.114 5.114 c 2.824 0 5.114 -2.289 5.114 -5.114 S 87.711 49.223 84.886 49.223 z M 82.355 32.706 c 1.165 0 2.114 0.948 2.114 2.114 c 0 1.166 -0.948 2.114 -2.114 2.114 c -1.166 0 -2.114 -0.948 -2.114 -2.114 C 80.241 33.654 81.189 32.706 82.355 32.706 z M 65.729 20.822 c 1.166 0 2.114 0.948 2.114 2.114 c 0 1.165 -0.948 2.114 -2.114 2.114 c -1.165 0 -2.114 -0.948 -2.114 -2.114 C 63.615 21.77 64.563 20.822 65.729 20.822 z M 54.337 3 c 1.165 0 2.114 0.948 2.114 2.114 s -0.948 2.114 -2.114 2.114 c -1.166 0 -2.114 -0.948 -2.114 -2.114 S 53.171 3 54.337 3 z M 32.706 7.645 c 0 -1.166 0.948 -2.114 2.114 -2.114 s 2.114 0.948 2.114 2.114 c 0 1.165 -0.948 2.114 -2.114 2.114 S 32.706 8.811 32.706 7.645 z M 22.158 22.935 c 0 -1.166 0.948 -2.114 2.114 -2.114 s 2.114 0.948 2.114 2.114 c 0 1.165 -0.948 2.114 -2.114 2.114 S 22.158 24.101 22.158 22.935 z M 5.114 37.777 C 3.948 37.777 3 36.829 3 35.663 s 0.948 -2.114 2.114 -2.114 c 1.165 0 2.114 0.948 2.114 2.114 S 6.279 37.777 5.114 37.777 z M 7.645 57.294 c -1.166 0 -2.114 -0.948 -2.114 -2.114 c 0 -1.166 0.948 -2.114 2.114 -2.114 c 1.165 0 2.114 0.948 2.114 2.114 C 9.759 56.346 8.811 57.294 7.645 57.294 z M 24.271 69.178 c -1.165 0 -2.114 -0.948 -2.114 -2.114 c 0 -1.165 0.948 -2.114 2.114 -2.114 s 2.114 0.948 2.114 2.114 C 26.385 68.23 25.437 69.178 24.271 69.178 z M 35.664 87 c -1.166 0 -2.114 -0.948 -2.114 -2.114 c 0 -1.166 0.948 -2.114 2.114 -2.114 c 1.165 0 2.114 0.948 2.114 2.114 C 37.777 86.052 36.829 87 35.664 87 z M 57.294 82.355 c 0 1.165 -0.948 2.114 -2.114 2.114 c -1.165 0 -2.114 -0.948 -2.114 -2.114 s 0.948 -2.114 2.114 -2.114 C 56.346 80.241 57.294 81.189 57.294 82.355 z M 67.842 67.065 c 0 1.166 -0.948 2.114 -2.114 2.114 c -1.165 0 -2.114 -0.948 -2.114 -2.114 c 0 -1.165 0.948 -2.114 2.114 -2.114 C 66.894 64.951 67.842 65.899 67.842 67.065 z M 45 62.349 c -9.625 0 -17.455 -7.83 -17.455 -17.455 S 35.375 27.439 45 27.439 s 17.455 7.83 17.455 17.455 S 54.625 62.349 45 62.349 z M 84.886 56.45 c -1.166 0 -2.114 -0.948 -2.114 -2.114 s 0.948 -2.114 2.114 -2.114 c 1.165 0 2.114 0.948 2.114 2.114 S 86.052 56.45 84.886 56.45 z" style="stroke: none; stroke-width: 1; stroke-dasharray: none; stroke-linecap: butt; stroke-linejoin: miter; stroke-miterlimit: 10; fill: rgb(233,22,22); fill-rule: nonzero; opacity: 1;" transform=" matrix(1 0 0 1 0 0) " stroke-linecap="round" />
</g>
</svg>